<svg version="1.1" xmlns="http://www.w3.org/2000/svg" viewBox="0 0 1668.5340438777037 857.1575436296266" width="1668.5340438777037" height="857.1575436296266">
  <!-- svg-source:excalidraw -->
  
  <defs>
    <style class="style-fonts">
      @font-face {
        font-family: "Virgil";
        src: url("https://excalidraw.com/Virgil.woff2");
      }
      @font-face {
        font-family: "Cascadia";
        src: url("https://excalidraw.com/Cascadia.woff2");
      }
    </style>
  </defs>
  <rect x="0" y="0" width="1668.5340438777037" height="857.1575436296266" fill="#ffffff"></rect><g stroke-linecap="round" transform="translate(522.7448295150007 428.16356272738096) rotate(0 58.5 42.5)"><path d="M0 0 L117 0 L117 85 L0 85" stroke="none" stroke-width="0" fill="#ffec99"></path><path d="M0 0 C45.53 0, 91.06 0, 117 0 M0 0 C32.62 0, 65.24 0, 117 0 M117 0 C117 24.46, 117 48.92, 117 85 M117 0 C117 31.01, 117 62.02, 117 85 M117 85 C72.39 85, 27.78 85, 0 85 M117 85 C81.21 85, 45.41 85, 0 85 M0 85 C0 55.9, 0 26.8, 0 0 M0 85 C0 56.79, 0 28.58, 0 0" stroke="#1e1e1e" stroke-width="1" fill="none"></path></g><g transform="translate(528.1648810897077 433.16356272738096) rotate(0 53.07994842529297 37.5)"><text x="53.07994842529297" y="0" font-family="Virgil, Segoe UI Emoji" font-size="20px" fill="#1e1e1e" text-anchor="middle" style="white-space: pre;" direction="ltr" dominant-baseline="text-before-edge">Quarterly </text><text x="53.07994842529297" y="25" font-family="Virgil, Segoe UI Emoji" font-size="20px" fill="#1e1e1e" text-anchor="middle" style="white-space: pre;" direction="ltr" dominant-baseline="text-before-edge">Extraction</text><text x="53.07994842529297" y="50" font-family="Virgil, Segoe UI Emoji" font-size="20px" fill="#1e1e1e" text-anchor="middle" style="white-space: pre;" direction="ltr" dominant-baseline="text-before-edge">Procedure </text></g><g stroke-linecap="round" transform="translate(1353.6208860029037 415.66356272738096) rotate(0 57 55)"><path d="M0 0 L114 0 L114 110 L0 110" stroke="none" stroke-width="0" fill="#ffec99"></path><path d="M0 0 C37.17 0, 74.34 0, 114 0 M0 0 C43.99 0, 87.99 0, 114 0 M114 0 C114 28.03, 114 56.06, 114 110 M114 0 C114 38.06, 114 76.11, 114 110 M114 110 C90.87 110, 67.75 110, 0 110 M114 110 C70.79 110, 27.58 110, 0 110 M0 110 C0 79.44, 0 48.87, 0 0 M0 110 C0 81.64, 0 53.29, 0 0" stroke="#1e1e1e" stroke-width="1" fill="none"></path></g><g transform="translate(1362.5409375776107 420.66356272738096) rotate(0 48.07994842529297 50)"><text x="48.07994842529297" y="0" font-family="Virgil, Segoe UI Emoji" font-size="20px" fill="#1e1e1e" text-anchor="middle" style="white-space: pre;" direction="ltr" dominant-baseline="text-before-edge">Calls </text><text x="48.07994842529297" y="25" font-family="Virgil, Segoe UI Emoji" font-size="20px" fill="#1e1e1e" text-anchor="middle" style="white-space: pre;" direction="ltr" dominant-baseline="text-before-edge">Summary </text><text x="48.07994842529297" y="50" font-family="Virgil, Segoe UI Emoji" font-size="20px" fill="#1e1e1e" text-anchor="middle" style="white-space: pre;" direction="ltr" dominant-baseline="text-before-edge">ETL </text><text x="48.07994842529297" y="75" font-family="Virgil, Segoe UI Emoji" font-size="20px" fill="#1e1e1e" text-anchor="middle" style="white-space: pre;" direction="ltr" dominant-baseline="text-before-edge">Procedure</text></g><g stroke-linecap="round" transform="translate(731.5594331625928 403.16356272738096) rotate(0 57 67.5)"><path d="M0 0 C34.7 0, 69.4 0, 114 0 M0 0 C25.64 0, 51.28 0, 114 0 M114 0 C114 39.6, 114 79.2, 114 135 M114 0 C114 44.09, 114 88.18, 114 135 M114 135 C70.44 135, 26.88 135, 0 135 M114 135 C74.89 135, 35.79 135, 0 135 M0 135 C0 107.66, 0 80.31, 0 0 M0 135 C0 96.5, 0 58, 0 0" stroke="#1e1e1e" stroke-width="1" fill="none"></path></g><g transform="translate(737.8494722250928 408.16356272738096) rotate(0 50.7099609375 62.5)"><text x="50.7099609375" y="0" font-family="Virgil, Segoe UI Emoji" font-size="20px" fill="#1e1e1e" text-anchor="middle" style="white-space: pre;" direction="ltr" dominant-baseline="text-before-edge">Extract </text><text x="50.7099609375" y="25" font-family="Virgil, Segoe UI Emoji" font-size="20px" fill="#1e1e1e" text-anchor="middle" style="white-space: pre;" direction="ltr" dominant-baseline="text-before-edge">data from</text><text x="50.7099609375" y="50" font-family="Virgil, Segoe UI Emoji" font-size="20px" fill="#1e1e1e" text-anchor="middle" style="white-space: pre;" direction="ltr" dominant-baseline="text-before-edge">tables </text><text x="50.7099609375" y="75" font-family="Virgil, Segoe UI Emoji" font-size="20px" fill="#1e1e1e" text-anchor="middle" style="white-space: pre;" direction="ltr" dominant-baseline="text-before-edge">into </text><text x="50.7099609375" y="100" font-family="Virgil, Segoe UI Emoji" font-size="20px" fill="#1e1e1e" text-anchor="middle" style="white-space: pre;" direction="ltr" dominant-baseline="text-before-edge">detailed</text></g><g stroke-linecap="round"><g transform="translate(643.3442674748255 469.2693856729002) rotate(0 39.35758284388362 0.49472875429700025)"><path d="M0 0 C17.75 0.22, 35.5 0.45, 78.72 0.99 M0 0 C22.88 0.29, 45.77 0.58, 78.72 0.99" stroke="#1e1e1e" stroke-width="1" fill="none"></path></g><g transform="translate(643.3442674748255 469.2693856729002) rotate(0 39.35758284388362 0.49472875429700025)"><path d="M50.4 10.89 C56.78 8.66, 63.17 6.43, 78.72 0.99 M50.4 10.89 C58.63 8.02, 66.86 5.14, 78.72 0.99" stroke="#1e1e1e" stroke-width="1" fill="none"></path></g><g transform="translate(643.3442674748255 469.2693856729002) rotate(0 39.35758284388362 0.49472875429700025)"><path d="M50.66 -9.62 C56.98 -7.23, 63.31 -4.84, 78.72 0.99 M50.66 -9.62 C58.81 -6.54, 66.97 -3.45, 78.72 0.99" stroke="#1e1e1e" stroke-width="1" fill="none"></path></g></g><mask></mask><g stroke-linecap="round"><g transform="translate(1254.1743062069909 456.03596564145846) rotate(0 46.19569750487108 3.421295537335766)"><path d="M0 0 C31.99 2.37, 63.98 4.74, 92.39 6.84 M0 0 C28.07 2.08, 56.13 4.16, 92.39 6.84" stroke="#1e1e1e" stroke-width="1" fill="none"></path></g><g transform="translate(1254.1743062069909 456.03596564145846) rotate(0 46.19569750487108 3.421295537335766)"><path d="M63.52 14.99 C73.52 12.17, 83.51 9.35, 92.39 6.84 M63.52 14.99 C72.29 12.52, 81.06 10.04, 92.39 6.84" stroke="#1e1e1e" stroke-width="1" fill="none"></path></g><g transform="translate(1254.1743062069909 456.03596564145846) rotate(0 46.19569750487108 3.421295537335766)"><path d="M65.04 -5.47 C74.51 -1.21, 83.98 3.06, 92.39 6.84 M65.04 -5.47 C73.35 -1.73, 81.66 2.01, 92.39 6.84" stroke="#1e1e1e" stroke-width="1" fill="none"></path></g></g><mask></mask><g stroke-linecap="round" transform="translate(1362.8123022568197 296.5838408950718) rotate(0 72.5 63.5)"><path d="M145 63.5 C145 65.87, 144.85 68.25, 144.54 70.61 C144.24 72.96, 143.78 75.32, 143.18 77.63 C142.58 79.94, 141.83 82.24, 140.93 84.47 C140.04 86.71, 138.99 88.92, 137.82 91.05 C136.65 93.19, 135.33 95.28, 133.89 97.28 C132.45 99.29, 130.87 101.24, 129.18 103.09 C127.5 104.94, 125.68 106.73, 123.77 108.4 C121.85 110.08, 119.82 111.67, 117.7 113.15 C115.59 114.62, 113.36 116.01, 111.07 117.27 C108.78 118.53, 106.39 119.68, 103.96 120.71 C101.52 121.74, 99 122.65, 96.45 123.44 C93.89 124.22, 91.27 124.88, 88.63 125.41 C85.99 125.94, 83.31 126.34, 80.62 126.6 C77.93 126.87, 75.21 127, 72.5 127 C69.79 127, 67.07 126.87, 64.38 126.6 C61.69 126.34, 59.01 125.94, 56.37 125.41 C53.73 124.88, 51.11 124.22, 48.55 123.44 C46 122.65, 43.48 121.74, 41.04 120.71 C38.61 119.68, 36.22 118.53, 33.93 117.27 C31.64 116.01, 29.41 114.62, 27.3 113.15 C25.18 111.67, 23.15 110.08, 21.23 108.4 C19.32 106.73, 17.5 104.94, 15.82 103.09 C14.13 101.24, 12.55 99.29, 11.11 97.28 C9.67 95.28, 8.35 93.19, 7.18 91.05 C6.01 88.92, 4.96 86.71, 4.07 84.47 C3.17 82.24, 2.42 79.94, 1.82 77.63 C1.22 75.32, 0.76 72.96, 0.46 70.61 C0.15 68.25, 0 65.87, 0 63.5 C0 61.13, 0.15 58.75, 0.46 56.39 C0.76 54.04, 1.22 51.68, 1.82 49.37 C2.42 47.06, 3.17 44.76, 4.07 42.53 C4.96 40.29, 6.01 38.08, 7.18 35.95 C8.35 33.81, 9.67 31.72, 11.11 29.72 C12.55 27.71, 14.13 25.76, 15.82 23.91 C17.5 22.06, 19.32 20.27, 21.23 18.6 C23.15 16.92, 25.18 15.33, 27.3 13.85 C29.41 12.38, 31.64 10.99, 33.93 9.73 C36.22 8.47, 38.61 7.32, 41.04 6.29 C43.48 5.26, 46 4.35, 48.55 3.56 C51.11 2.78, 53.73 2.12, 56.37 1.59 C59.01 1.06, 61.69 0.66, 64.38 0.4 C67.07 0.13, 69.79 0, 72.5 0 C75.21 0, 77.93 0.13, 80.62 0.4 C83.31 0.66, 85.99 1.06, 88.63 1.59 C91.27 2.12, 93.89 2.78, 96.45 3.56 C99 4.35, 101.52 5.26, 103.96 6.29 C106.39 7.32, 108.78 8.47, 111.07 9.73 C113.36 10.99, 115.59 12.38, 117.7 13.85 C119.82 15.33, 121.85 16.92, 123.77 18.6 C125.68 20.27, 127.5 22.06, 129.18 23.91 C130.87 25.76, 132.45 27.71, 133.89 29.72 C135.33 31.72, 136.65 33.81, 137.82 35.95 C138.99 38.08, 140.04 40.29, 140.93 42.53 C141.83 44.76, 142.58 47.06, 143.18 49.37 C143.78 51.68, 144.24 54.04, 144.54 56.39 C144.85 58.75, 144.92 62.32, 145 63.5 C145.08 64.68, 145.08 62.32, 145 63.5" stroke="none" stroke-width="0" fill="#e9ecef"></path><path d="M145 63.5 C145 65.87, 144.85 68.25, 144.54 70.61 C144.24 72.96, 143.78 75.32, 143.18 77.63 C142.58 79.94, 141.83 82.24, 140.93 84.47 C140.04 86.71, 138.99 88.92, 137.82 91.05 C136.65 93.19, 135.33 95.28, 133.89 97.28 C132.45 99.29, 130.87 101.24, 129.18 103.09 C127.5 104.94, 125.68 106.73, 123.77 108.4 C121.85 110.08, 119.82 111.67, 117.7 113.15 C115.59 114.62, 113.36 116.01, 111.07 117.27 C108.78 118.53, 106.39 119.68, 103.96 120.71 C101.52 121.74, 99 122.65, 96.45 123.44 C93.89 124.22, 91.27 124.88, 88.63 125.41 C85.99 125.94, 83.31 126.34, 80.62 126.6 C77.93 126.87, 75.21 127, 72.5 127 C69.79 127, 67.07 126.87, 64.38 126.6 C61.69 126.34, 59.01 125.94, 56.37 125.41 C53.73 124.88, 51.11 124.22, 48.55 123.44 C46 122.65, 43.48 121.74, 41.04 120.71 C38.61 119.68, 36.22 118.53, 33.93 117.27 C31.64 116.01, 29.41 114.62, 27.3 113.15 C25.18 111.67, 23.15 110.08, 21.23 108.4 C19.32 106.73, 17.5 104.94, 15.82 103.09 C14.13 101.24, 12.55 99.29, 11.11 97.28 C9.67 95.28, 8.35 93.19, 7.18 91.05 C6.01 88.92, 4.96 86.71, 4.07 84.47 C3.17 82.24, 2.42 79.94, 1.82 77.63 C1.22 75.32, 0.76 72.96, 0.46 70.61 C0.15 68.25, 0 65.87, 0 63.5 C0 61.13, 0.15 58.75, 0.46 56.39 C0.76 54.04, 1.22 51.68, 1.82 49.37 C2.42 47.06, 3.17 44.76, 4.07 42.53 C4.96 40.29, 6.01 38.08, 7.18 35.95 C8.35 33.81, 9.67 31.72, 11.11 29.72 C12.55 27.71, 14.13 25.76, 15.82 23.91 C17.5 22.06, 19.32 20.27, 21.23 18.6 C23.15 16.92, 25.18 15.33, 27.3 13.85 C29.41 12.38, 31.64 10.99, 33.93 9.73 C36.22 8.47, 38.61 7.32, 41.04 6.29 C43.48 5.26, 46 4.35, 48.55 3.56 C51.11 2.78, 53.73 2.12, 56.37 1.59 C59.01 1.06, 61.69 0.66, 64.38 0.4 C67.07 0.13, 69.79 0, 72.5 0 C75.21 0, 77.93 0.13, 80.62 0.4 C83.31 0.66, 85.99 1.06, 88.63 1.59 C91.27 2.12, 93.89 2.78, 96.45 3.56 C99 4.35, 101.52 5.26, 103.96 6.29 C106.39 7.32, 108.78 8.47, 111.07 9.73 C113.36 10.99, 115.59 12.38, 117.7 13.85 C119.82 15.33, 121.85 16.92, 123.77 18.6 C125.68 20.27, 127.5 22.06, 129.18 23.91 C130.87 25.76, 132.45 27.71, 133.89 29.72 C135.33 31.72, 136.65 33.81, 137.82 35.95 C138.99 38.08, 140.04 40.29, 140.93 42.53 C141.83 44.76, 142.58 47.06, 143.18 49.37 C143.78 51.68, 144.24 54.04, 144.54 56.39 C144.85 58.75, 144.92 62.32, 145 63.5 C145.08 64.68, 145.08 62.32, 145 63.5" stroke="#1e1e1e" stroke-width="1" fill="none"></path></g><g transform="translate(1389.6270853400333 320.182560289726) rotate(0 45.91997528076172 40)"><text x="45.91997528076172" y="0" font-family="Virgil, Segoe UI Emoji" font-size="16px" fill="#1e1e1e" text-anchor="middle" style="white-space: pre;" direction="ltr" dominant-baseline="text-before-edge"></text><text x="45.91997528076172" y="20" font-family="Virgil, Segoe UI Emoji" font-size="16px" fill="#1e1e1e" text-anchor="middle" style="white-space: pre;" direction="ltr" dominant-baseline="text-before-edge">Will perform</text><text x="45.91997528076172" y="40" font-family="Virgil, Segoe UI Emoji" font-size="16px" fill="#1e1e1e" text-anchor="middle" style="white-space: pre;" direction="ltr" dominant-baseline="text-before-edge">ETL for all</text><text x="45.91997528076172" y="60" font-family="Virgil, Segoe UI Emoji" font-size="16px" fill="#1e1e1e" text-anchor="middle" style="white-space: pre;" direction="ltr" dominant-baseline="text-before-edge">films  </text></g><g stroke-linecap="round" transform="translate(166.58131260830214 736.1575436296266) rotate(0 107 46.5)"><path d="M0 0 L214 0 L214 93 L0 93" stroke="none" stroke-width="0" fill="#d0bfff"></path><path d="M0 0 C80.49 0, 160.98 0, 214 0 M0 0 C75.91 0, 151.81 0, 214 0 M214 0 C214 26.6, 214 53.2, 214 93 M214 0 C214 23.67, 214 47.34, 214 93 M214 93 C169.25 93, 124.51 93, 0 93 M214 93 C152.41 93, 90.82 93, 0 93 M0 93 C0 62.29, 0 31.58, 0 0 M0 93 C0 64.8, 0 36.61, 0 0" stroke="#1e1e1e" stroke-width="1" fill="none"></path></g><g transform="translate(175.95737309414199 742.6575436296266) rotate(0 97.62393951416016 40)"><text x="97.62393951416016" y="0" font-family="Virgil, Segoe UI Emoji" font-size="16px" fill="#1e1e1e" text-anchor="middle" style="white-space: pre;" direction="ltr" dominant-baseline="text-before-edge">Trigger that activates </text><text x="97.62393951416016" y="20" font-family="Virgil, Segoe UI Emoji" font-size="16px" fill="#1e1e1e" text-anchor="middle" style="white-space: pre;" direction="ltr" dominant-baseline="text-before-edge">on 'insert' 'update' or </text><text x="97.62393951416016" y="40" font-family="Virgil, Segoe UI Emoji" font-size="16px" fill="#1e1e1e" text-anchor="middle" style="white-space: pre;" direction="ltr" dominant-baseline="text-before-edge">'delete' with respect to </text><text x="97.62393951416016" y="60" font-family="Virgil, Segoe UI Emoji" font-size="16px" fill="#1e1e1e" text-anchor="middle" style="white-space: pre;" direction="ltr" dominant-baseline="text-before-edge">the detailed table</text></g><g stroke-linecap="round" transform="translate(445.08131260830214 737.1575436296266) rotate(0 107 55)"><path d="M0 0 L214 0 L214 110 L0 110" stroke="none" stroke-width="0" fill="#96f2d7"></path><path d="M0 0 C77.21 0, 154.41 0, 214 0 M0 0 C62.86 0, 125.71 0, 214 0 M214 0 C214 32.21, 214 64.43, 214 110 M214 0 C214 42.31, 214 84.63, 214 110 M214 110 C150.06 110, 86.13 110, 0 110 M214 110 C168.1 110, 122.19 110, 0 110 M0 110 C0 76.99, 0 43.99, 0 0 M0 110 C0 81.66, 0 53.33, 0 0" stroke="#1e1e1e" stroke-width="1" fill="none"></path></g><g transform="translate(450.2893814559584 742.1575436296266) rotate(0 101.79193115234375 50)"><text x="101.79193115234375" y="0" font-family="Virgil, Segoe UI Emoji" font-size="16px" fill="#1e1e1e" text-anchor="middle" style="white-space: pre;" direction="ltr" dominant-baseline="text-before-edge">Calls a function that  </text><text x="101.79193115234375" y="20" font-family="Virgil, Segoe UI Emoji" font-size="16px" fill="#1e1e1e" text-anchor="middle" style="white-space: pre;" direction="ltr" dominant-baseline="text-before-edge">returns a trigger, and will</text><text x="101.79193115234375" y="40" font-family="Virgil, Segoe UI Emoji" font-size="16px" fill="#1e1e1e" text-anchor="middle" style="white-space: pre;" direction="ltr" dominant-baseline="text-before-edge">input the proper </text><text x="101.79193115234375" y="60" font-family="Virgil, Segoe UI Emoji" font-size="16px" fill="#1e1e1e" text-anchor="middle" style="white-space: pre;" direction="ltr" dominant-baseline="text-before-edge">parameter into the </text><text x="101.79193115234375" y="80" font-family="Virgil, Segoe UI Emoji" font-size="16px" fill="#1e1e1e" text-anchor="middle" style="white-space: pre;" direction="ltr" dominant-baseline="text-before-edge">Summary ETL Procedure</text></g><g stroke-linecap="round"><g transform="translate(389.33131260830214 779.2330928971844) rotate(0 22.499999999999886 0.14721732716800418)"><path d="M0 0 C10.61 0.07, 21.21 0.14, 45 0.29 M0 0 C12.51 0.08, 25.02 0.16, 45 0.29" stroke="#1e1e1e" stroke-width="1" fill="none"></path></g><g transform="translate(389.33131260830214 779.2330928971844) rotate(0 22.499999999999886 0.14721732716800418)"><path d="M23.81 7.85 C28.8 6.07, 33.8 4.29, 45 0.29 M23.81 7.85 C29.7 5.75, 35.59 3.65, 45 0.29" stroke="#1e1e1e" stroke-width="1" fill="none"></path></g><g transform="translate(389.33131260830214 779.2330928971844) rotate(0 22.499999999999886 0.14721732716800418)"><path d="M23.91 -7.54 C28.88 -5.69, 33.85 -3.85, 45 0.29 M23.91 -7.54 C29.77 -5.36, 35.63 -3.18, 45 0.29" stroke="#1e1e1e" stroke-width="1" fill="none"></path></g></g><mask></mask><g stroke-linecap="round" transform="translate(724.0813126083021 736.6575436296266) rotate(0 57 55)"><path d="M0 0 L114 0 L114 110 L0 110" stroke="none" stroke-width="0" fill="#ffec99"></path><path d="M0 0 C39.57 0, 79.13 0, 114 0 M0 0 C40.04 0, 80.07 0, 114 0 M114 0 C114 38.23, 114 76.46, 114 110 M114 0 C114 36.87, 114 73.75, 114 110 M114 110 C86.94 110, 59.88 110, 0 110 M114 110 C81.74 110, 49.47 110, 0 110 M0 110 C0 82.74, 0 55.49, 0 0 M0 110 C0 73.92, 0 37.83, 0 0" stroke="#1e1e1e" stroke-width="1" fill="none"></path></g><g transform="translate(733.0013641830092 741.6575436296266) rotate(0 48.07994842529297 50)"><text x="48.07994842529297" y="0" font-family="Virgil, Segoe UI Emoji" font-size="20px" fill="#1e1e1e" text-anchor="middle" style="white-space: pre;" direction="ltr" dominant-baseline="text-before-edge">Calls </text><text x="48.07994842529297" y="25" font-family="Virgil, Segoe UI Emoji" font-size="20px" fill="#1e1e1e" text-anchor="middle" style="white-space: pre;" direction="ltr" dominant-baseline="text-before-edge">Summary </text><text x="48.07994842529297" y="50" font-family="Virgil, Segoe UI Emoji" font-size="20px" fill="#1e1e1e" text-anchor="middle" style="white-space: pre;" direction="ltr" dominant-baseline="text-before-edge">ETL </text><text x="48.07994842529297" y="75" font-family="Virgil, Segoe UI Emoji" font-size="20px" fill="#1e1e1e" text-anchor="middle" style="white-space: pre;" direction="ltr" dominant-baseline="text-before-edge">Procedure</text></g><g stroke-linecap="round" transform="translate(765.0813126083021 592.1575436296266) rotate(0 101.5 92)"><path d="M203 92 C203 95.01, 202.84 98.03, 202.51 101.02 C202.19 104.01, 201.7 107, 201.05 109.95 C200.4 112.9, 199.59 115.83, 198.63 118.71 C197.67 121.58, 196.54 124.43, 195.27 127.21 C194 129.98, 192.58 132.72, 191.02 135.37 C189.45 138.02, 187.74 140.61, 185.89 143.11 C184.05 145.61, 182.06 148.04, 179.96 150.36 C177.86 152.69, 175.62 154.93, 173.27 157.05 C170.93 159.18, 168.45 161.21, 165.89 163.12 C163.33 165.02, 160.65 166.83, 157.89 168.5 C155.13 170.17, 152.27 171.72, 149.35 173.14 C146.42 174.55, 143.41 175.85, 140.34 177 C137.28 178.15, 134.14 179.17, 130.96 180.04 C127.79 180.91, 124.55 181.65, 121.3 182.23 C118.05 182.82, 114.75 183.26, 111.45 183.56 C108.15 183.85, 104.82 184, 101.5 184 C98.18 184, 94.85 183.85, 91.55 183.56 C88.25 183.26, 84.95 182.82, 81.7 182.23 C78.45 181.65, 75.21 180.91, 72.04 180.04 C68.86 179.17, 65.72 178.15, 62.66 177 C59.59 175.85, 56.58 174.55, 53.65 173.14 C50.73 171.72, 47.87 170.17, 45.11 168.5 C42.35 166.83, 39.67 165.02, 37.11 163.12 C34.55 161.21, 32.07 159.18, 29.73 157.05 C27.38 154.93, 25.14 152.69, 23.04 150.36 C20.94 148.04, 18.95 145.61, 17.11 143.11 C15.26 140.61, 13.55 138.02, 11.98 135.37 C10.42 132.72, 9 129.98, 7.73 127.21 C6.46 124.43, 5.33 121.58, 4.37 118.71 C3.41 115.83, 2.6 112.9, 1.95 109.95 C1.3 107, 0.81 104.01, 0.49 101.02 C0.16 98.03, 0 95.01, 0 92 C0 88.99, 0.16 85.97, 0.49 82.98 C0.81 79.99, 1.3 77, 1.95 74.05 C2.6 71.1, 3.41 68.17, 4.37 65.29 C5.33 62.42, 6.46 59.57, 7.73 56.79 C9 54.02, 10.42 51.28, 11.98 48.63 C13.55 45.98, 15.26 43.39, 17.11 40.89 C18.95 38.39, 20.94 35.96, 23.04 33.64 C25.14 31.31, 27.38 29.07, 29.73 26.95 C32.07 24.82, 34.55 22.79, 37.11 20.88 C39.67 18.98, 42.35 17.17, 45.11 15.5 C47.87 13.83, 50.73 12.28, 53.65 10.86 C56.58 9.45, 59.59 8.15, 62.66 7 C65.72 5.85, 68.86 4.83, 72.04 3.96 C75.21 3.09, 78.45 2.35, 81.7 1.77 C84.95 1.18, 88.25 0.74, 91.55 0.44 C94.85 0.15, 98.18 0, 101.5 0 C104.82 0, 108.15 0.15, 111.45 0.44 C114.75 0.74, 118.05 1.18, 121.3 1.77 C124.55 2.35, 127.79 3.09, 130.96 3.96 C134.14 4.83, 137.28 5.85, 140.34 7 C143.41 8.15, 146.42 9.45, 149.35 10.86 C152.27 12.28, 155.13 13.83, 157.89 15.5 C160.65 17.17, 163.33 18.98, 165.89 20.88 C168.45 22.79, 170.93 24.82, 173.27 26.95 C175.62 29.07, 177.86 31.31, 179.96 33.64 C182.06 35.96, 184.05 38.39, 185.89 40.89 C187.74 43.39, 189.45 45.98, 191.02 48.63 C192.58 51.28, 194 54.02, 195.27 56.79 C196.54 59.57, 197.67 62.42, 198.63 65.29 C199.59 68.17, 200.4 71.1, 201.05 74.05 C201.7 77, 202.19 79.99, 202.51 82.98 C202.84 85.97, 202.92 90.5, 203 92 C203.08 93.5, 203.08 90.5, 203 92" stroke="none" stroke-width="0" fill="#e9ecef"></path><path d="M203 92 C203 95.01, 202.84 98.03, 202.51 101.02 C202.19 104.01, 201.7 107, 201.05 109.95 C200.4 112.9, 199.59 115.83, 198.63 118.71 C197.67 121.58, 196.54 124.43, 195.27 127.21 C194 129.98, 192.58 132.72, 191.02 135.37 C189.45 138.02, 187.74 140.61, 185.89 143.11 C184.05 145.61, 182.06 148.04, 179.96 150.36 C177.86 152.69, 175.62 154.93, 173.27 157.05 C170.93 159.18, 168.45 161.21, 165.89 163.12 C163.33 165.02, 160.65 166.83, 157.89 168.5 C155.13 170.17, 152.27 171.72, 149.35 173.14 C146.42 174.55, 143.41 175.85, 140.34 177 C137.28 178.15, 134.14 179.17, 130.96 180.04 C127.79 180.91, 124.55 181.65, 121.3 182.23 C118.05 182.82, 114.75 183.26, 111.45 183.56 C108.15 183.85, 104.82 184, 101.5 184 C98.18 184, 94.85 183.85, 91.55 183.56 C88.25 183.26, 84.95 182.82, 81.7 182.23 C78.45 181.65, 75.21 180.91, 72.04 180.04 C68.86 179.17, 65.72 178.15, 62.66 177 C59.59 175.85, 56.58 174.55, 53.65 173.14 C50.73 171.72, 47.87 170.17, 45.11 168.5 C42.35 166.83, 39.67 165.02, 37.11 163.12 C34.55 161.21, 32.07 159.18, 29.73 157.05 C27.38 154.93, 25.14 152.69, 23.04 150.36 C20.94 148.04, 18.95 145.61, 17.11 143.11 C15.26 140.61, 13.55 138.02, 11.98 135.37 C10.42 132.72, 9 129.98, 7.73 127.21 C6.46 124.43, 5.33 121.58, 4.37 118.71 C3.41 115.83, 2.6 112.9, 1.95 109.95 C1.3 107, 0.81 104.01, 0.49 101.02 C0.16 98.03, 0 95.01, 0 92 C0 88.99, 0.16 85.97, 0.49 82.98 C0.81 79.99, 1.3 77, 1.95 74.05 C2.6 71.1, 3.41 68.17, 4.37 65.29 C5.33 62.42, 6.46 59.57, 7.73 56.79 C9 54.02, 10.42 51.28, 11.98 48.63 C13.55 45.98, 15.26 43.39, 17.11 40.89 C18.95 38.39, 20.94 35.96, 23.04 33.64 C25.14 31.31, 27.38 29.07, 29.73 26.95 C32.07 24.82, 34.55 22.79, 37.11 20.88 C39.67 18.98, 42.35 17.17, 45.11 15.5 C47.87 13.83, 50.73 12.28, 53.65 10.86 C56.58 9.45, 59.59 8.15, 62.66 7 C65.72 5.85, 68.86 4.83, 72.04 3.96 C75.21 3.09, 78.45 2.35, 81.7 1.77 C84.95 1.18, 88.25 0.74, 91.55 0.44 C94.85 0.15, 98.18 0, 101.5 0 C104.82 0, 108.15 0.15, 111.45 0.44 C114.75 0.74, 118.05 1.18, 121.3 1.77 C124.55 2.35, 127.79 3.09, 130.96 3.96 C134.14 4.83, 137.28 5.85, 140.34 7 C143.41 8.15, 146.42 9.45, 149.35 10.86 C152.27 12.28, 155.13 13.83, 157.89 15.5 C160.65 17.17, 163.33 18.98, 165.89 20.88 C168.45 22.79, 170.93 24.82, 173.27 26.95 C175.62 29.07, 177.86 31.31, 179.96 33.64 C182.06 35.96, 184.05 38.39, 185.89 40.89 C187.74 43.39, 189.45 45.98, 191.02 48.63 C192.58 51.28, 194 54.02, 195.27 56.79 C196.54 59.57, 197.67 62.42, 198.63 65.29 C199.59 68.17, 200.4 71.1, 201.05 74.05 C201.7 77, 202.19 79.99, 202.51 82.98 C202.84 85.97, 202.92 90.5, 203 92 C203.08 93.5, 203.08 90.5, 203 92" stroke="#1e1e1e" stroke-width="1" fill="none"></path></g><g transform="translate(800.5060344985317 624.1037197604643) rotate(0 66.30393981933594 60)"><text x="66.30393981933594" y="0" font-family="Virgil, Segoe UI Emoji" font-size="16px" fill="#1e1e1e" text-anchor="middle" style="white-space: pre;" direction="ltr" dominant-baseline="text-before-edge"></text><text x="66.30393981933594" y="20" font-family="Virgil, Segoe UI Emoji" font-size="16px" fill="#1e1e1e" text-anchor="middle" style="white-space: pre;" direction="ltr" dominant-baseline="text-before-edge">Will perform ETL</text><text x="66.30393981933594" y="40" font-family="Virgil, Segoe UI Emoji" font-size="16px" fill="#1e1e1e" text-anchor="middle" style="white-space: pre;" direction="ltr" dominant-baseline="text-before-edge"> and refresh </text><text x="66.30393981933594" y="60" font-family="Virgil, Segoe UI Emoji" font-size="16px" fill="#1e1e1e" text-anchor="middle" style="white-space: pre;" direction="ltr" dominant-baseline="text-before-edge">table only for </text><text x="66.30393981933594" y="80" font-family="Virgil, Segoe UI Emoji" font-size="16px" fill="#1e1e1e" text-anchor="middle" style="white-space: pre;" direction="ltr" dominant-baseline="text-before-edge">film(s) with the </text><text x="66.30393981933594" y="100" font-family="Virgil, Segoe UI Emoji" font-size="16px" fill="#1e1e1e" text-anchor="middle" style="white-space: pre;" direction="ltr" dominant-baseline="text-before-edge">specified film id. </text></g><g stroke-linecap="round"><g transform="translate(669.3313126083021 785.4295991883919) rotate(0 23.5 0.047353558326136636)"><path d="M0 0 C15.95 0.03, 31.89 0.06, 47 0.09 M0 0 C18.01 0.04, 36.02 0.07, 47 0.09" stroke="#1e1e1e" stroke-width="1" fill="none"></path></g><g transform="translate(669.3313126083021 785.4295991883919) rotate(0 23.5 0.047353558326136636)"><path d="M24.9 8.09 C32.4 5.38, 39.9 2.66, 47 0.09 M24.9 8.09 C33.37 5.02, 41.84 1.96, 47 0.09" stroke="#1e1e1e" stroke-width="1" fill="none"></path></g><g transform="translate(669.3313126083021 785.4295991883919) rotate(0 23.5 0.047353558326136636)"><path d="M24.93 -7.99 C32.42 -5.25, 39.91 -2.5, 47 0.09 M24.93 -7.99 C33.39 -4.89, 41.85 -1.79, 47 0.09" stroke="#1e1e1e" stroke-width="1" fill="none"></path></g></g><mask></mask><g stroke-linecap="round" transform="translate(166.27318139726935 403.0381511036303) rotate(0 132 71.5)"><path d="M0 0 L264 0 L264 143 L0 143" stroke="none" stroke-width="0" fill="#0078d7"></path><path d="M0 0 C53.7 0, 107.4 0, 264 0 M0 0 C95.28 0, 190.56 0, 264 0 M264 0 C264 53.24, 264 106.48, 264 143 M264 0 C264 51.53, 264 103.05, 264 143 M264 143 C200.05 143, 136.1 143, 0 143 M264 143 C185.02 143, 106.03 143, 0 143 M0 143 C0 87.22, 0 31.44, 0 0 M0 143 C0 100.13, 0 57.26, 0 0" stroke="#1e1e1e" stroke-width="1" fill="none"></path></g><g transform="translate(174.96924157793342 434.5381511036303) rotate(0 123.30393981933594 40)"><text x="123.30393981933594" y="0" font-family="Virgil, Segoe UI Emoji" font-size="16px" fill="#ffffff" text-anchor="middle" style="white-space: pre;" direction="ltr" dominant-baseline="text-before-edge">pgAgent Job</text><text x="123.30393981933594" y="20" font-family="Virgil, Segoe UI Emoji" font-size="16px" fill="#ffffff" text-anchor="middle" style="white-space: pre;" direction="ltr" dominant-baseline="text-before-edge">Will call 'Quarterly Extraction </text><text x="123.30393981933594" y="40" font-family="Virgil, Segoe UI Emoji" font-size="16px" fill="#ffffff" text-anchor="middle" style="white-space: pre;" direction="ltr" dominant-baseline="text-before-edge">Procedure' once every quarter </text><text x="123.30393981933594" y="60" font-family="Virgil, Segoe UI Emoji" font-size="16px" fill="#ffffff" text-anchor="middle" style="white-space: pre;" direction="ltr" dominant-baseline="text-before-edge">with correct dates.</text></g><g stroke-linecap="round" transform="translate(10 260.9722760019423) rotate(0 92.5 92)"><path d="M185 92 C185 95.01, 184.85 98.03, 184.55 101.02 C184.26 104.01, 183.81 107, 183.22 109.95 C182.63 112.9, 181.89 115.83, 181.02 118.71 C180.14 121.58, 179.12 124.43, 177.96 127.21 C176.8 129.98, 175.5 132.72, 174.08 135.37 C172.65 138.02, 171.09 140.61, 169.41 143.11 C167.73 145.61, 165.92 148.04, 164 150.36 C162.09 152.69, 160.04 154.93, 157.91 157.05 C155.77 159.18, 153.52 161.21, 151.18 163.12 C148.85 165.02, 146.4 166.83, 143.89 168.5 C141.38 170.17, 138.77 171.72, 136.1 173.14 C133.44 174.55, 130.69 175.85, 127.9 177 C125.11 178.15, 122.24 179.17, 119.35 180.04 C116.46 180.91, 113.51 181.65, 110.55 182.23 C107.58 182.82, 104.57 183.26, 101.57 183.56 C98.56 183.85, 95.52 184, 92.5 184 C89.48 184, 86.44 183.85, 83.43 183.56 C80.43 183.26, 77.42 182.82, 74.45 182.23 C71.49 181.65, 68.54 180.91, 65.65 180.04 C62.76 179.17, 59.89 178.15, 57.1 177 C54.31 175.85, 51.56 174.55, 48.9 173.14 C46.23 171.72, 43.62 170.17, 41.11 168.5 C38.6 166.83, 36.15 165.02, 33.82 163.12 C31.48 161.21, 29.23 159.18, 27.09 157.05 C24.96 154.93, 22.91 152.69, 21 150.36 C19.08 148.04, 17.27 145.61, 15.59 143.11 C13.91 140.61, 12.35 138.02, 10.92 135.37 C9.5 132.72, 8.2 129.98, 7.04 127.21 C5.88 124.43, 4.86 121.58, 3.98 118.71 C3.11 115.83, 2.37 112.9, 1.78 109.95 C1.19 107, 0.74 104.01, 0.45 101.02 C0.15 98.03, 0 95.01, 0 92 C0 88.99, 0.15 85.97, 0.45 82.98 C0.74 79.99, 1.19 77, 1.78 74.05 C2.37 71.1, 3.11 68.17, 3.98 65.29 C4.86 62.42, 5.88 59.57, 7.04 56.79 C8.2 54.02, 9.5 51.28, 10.92 48.63 C12.35 45.98, 13.91 43.39, 15.59 40.89 C17.27 38.39, 19.08 35.96, 21 33.64 C22.91 31.31, 24.96 29.07, 27.09 26.95 C29.23 24.82, 31.48 22.79, 33.82 20.88 C36.15 18.98, 38.6 17.17, 41.11 15.5 C43.62 13.83, 46.23 12.28, 48.9 10.86 C51.56 9.45, 54.31 8.15, 57.1 7 C59.89 5.85, 62.76 4.83, 65.65 3.96 C68.54 3.09, 71.49 2.35, 74.45 1.77 C77.42 1.18, 80.43 0.74, 83.43 0.44 C86.44 0.15, 89.48 0, 92.5 0 C95.52 0, 98.56 0.15, 101.57 0.44 C104.57 0.74, 107.58 1.18, 110.55 1.77 C113.51 2.35, 116.46 3.09, 119.35 3.96 C122.24 4.83, 125.11 5.85, 127.9 7 C130.69 8.15, 133.44 9.45, 136.1 10.86 C138.77 12.28, 141.38 13.83, 143.89 15.5 C146.4 17.17, 148.85 18.98, 151.18 20.88 C153.52 22.79, 155.77 24.82, 157.91 26.95 C160.04 29.07, 162.09 31.31, 164 33.64 C165.92 35.96, 167.73 38.39, 169.41 40.89 C171.09 43.39, 172.65 45.98, 174.08 48.63 C175.5 51.28, 176.8 54.02, 177.96 56.79 C179.12 59.57, 180.14 62.42, 181.02 65.29 C181.89 68.17, 182.63 71.1, 183.22 74.05 C183.81 77, 184.26 79.99, 184.55 82.98 C184.85 85.97, 184.93 90.5, 185 92 C185.07 93.5, 185.07 90.5, 185 92" stroke="none" stroke-width="0" fill="#e9ecef"></path><path d="M185 92 C185 95.01, 184.85 98.03, 184.55 101.02 C184.26 104.01, 183.81 107, 183.22 109.95 C182.63 112.9, 181.89 115.83, 181.02 118.71 C180.14 121.58, 179.12 124.43, 177.96 127.21 C176.8 129.98, 175.5 132.72, 174.08 135.37 C172.65 138.02, 171.09 140.61, 169.41 143.11 C167.73 145.61, 165.92 148.04, 164 150.36 C162.09 152.69, 160.04 154.93, 157.91 157.05 C155.77 159.18, 153.52 161.21, 151.18 163.12 C148.85 165.02, 146.4 166.83, 143.89 168.5 C141.38 170.17, 138.77 171.72, 136.1 173.14 C133.44 174.55, 130.69 175.85, 127.9 177 C125.11 178.15, 122.24 179.17, 119.35 180.04 C116.46 180.91, 113.51 181.65, 110.55 182.23 C107.58 182.82, 104.57 183.26, 101.57 183.56 C98.56 183.85, 95.52 184, 92.5 184 C89.48 184, 86.44 183.85, 83.43 183.56 C80.43 183.26, 77.42 182.82, 74.45 182.23 C71.49 181.65, 68.54 180.91, 65.65 180.04 C62.76 179.17, 59.89 178.15, 57.1 177 C54.31 175.85, 51.56 174.55, 48.9 173.14 C46.23 171.72, 43.62 170.17, 41.11 168.5 C38.6 166.83, 36.15 165.02, 33.82 163.12 C31.48 161.21, 29.23 159.18, 27.09 157.05 C24.96 154.93, 22.91 152.69, 21 150.36 C19.08 148.04, 17.27 145.61, 15.59 143.11 C13.91 140.61, 12.35 138.02, 10.92 135.37 C9.5 132.72, 8.2 129.98, 7.04 127.21 C5.88 124.43, 4.86 121.58, 3.98 118.71 C3.11 115.83, 2.37 112.9, 1.78 109.95 C1.19 107, 0.74 104.01, 0.45 101.02 C0.15 98.03, 0 95.01, 0 92 C0 88.99, 0.15 85.97, 0.45 82.98 C0.74 79.99, 1.19 77, 1.78 74.05 C2.37 71.1, 3.11 68.17, 3.98 65.29 C4.86 62.42, 5.88 59.57, 7.04 56.79 C8.2 54.02, 9.5 51.28, 10.92 48.63 C12.35 45.98, 13.91 43.39, 15.59 40.89 C17.27 38.39, 19.08 35.96, 21 33.64 C22.91 31.31, 24.96 29.07, 27.09 26.95 C29.23 24.82, 31.48 22.79, 33.82 20.88 C36.15 18.98, 38.6 17.17, 41.11 15.5 C43.62 13.83, 46.23 12.28, 48.9 10.86 C51.56 9.45, 54.31 8.15, 57.1 7 C59.89 5.85, 62.76 4.83, 65.65 3.96 C68.54 3.09, 71.49 2.35, 74.45 1.77 C77.42 1.18, 80.43 0.74, 83.43 0.44 C86.44 0.15, 89.48 0, 92.5 0 C95.52 0, 98.56 0.15, 101.57 0.44 C104.57 0.74, 107.58 1.18, 110.55 1.77 C113.51 2.35, 116.46 3.09, 119.35 3.96 C122.24 4.83, 125.11 5.85, 127.9 7 C130.69 8.15, 133.44 9.45, 136.1 10.86 C138.77 12.28, 141.38 13.83, 143.89 15.5 C146.4 17.17, 148.85 18.98, 151.18 20.88 C153.52 22.79, 155.77 24.82, 157.91 26.95 C160.04 29.07, 162.09 31.31, 164 33.64 C165.92 35.96, 167.73 38.39, 169.41 40.89 C171.09 43.39, 172.65 45.98, 174.08 48.63 C175.5 51.28, 176.8 54.02, 177.96 56.79 C179.12 59.57, 180.14 62.42, 181.02 65.29 C181.89 68.17, 182.63 71.1, 183.22 74.05 C183.81 77, 184.26 79.99, 184.55 82.98 C184.85 85.97, 184.93 90.5, 185 92 C185.07 93.5, 185.07 90.5, 185 92" stroke="#1e1e1e" stroke-width="1" fill="none"></path></g><g transform="translate(42.28066442725594 302.91845213277986) rotate(0 60.31195831298828 50)"><text x="60.31195831298828" y="0" font-family="Virgil, Segoe UI Emoji" font-size="16px" fill="#1e1e1e" text-anchor="middle" style="white-space: pre;" direction="ltr" dominant-baseline="text-before-edge">create </text><text x="60.31195831298828" y="20" font-family="Virgil, Segoe UI Emoji" font-size="16px" fill="#1e1e1e" text-anchor="middle" style="white-space: pre;" direction="ltr" dominant-baseline="text-before-edge">summary, </text><text x="60.31195831298828" y="40" font-family="Virgil, Segoe UI Emoji" font-size="16px" fill="#1e1e1e" text-anchor="middle" style="white-space: pre;" direction="ltr" dominant-baseline="text-before-edge">detailed tables</text><text x="60.31195831298828" y="60" font-family="Virgil, Segoe UI Emoji" font-size="16px" fill="#1e1e1e" text-anchor="middle" style="white-space: pre;" direction="ltr" dominant-baseline="text-before-edge">if tables do </text><text x="60.31195831298828" y="80" font-family="Virgil, Segoe UI Emoji" font-size="16px" fill="#1e1e1e" text-anchor="middle" style="white-space: pre;" direction="ltr" dominant-baseline="text-before-edge">not exist</text></g><g stroke-linecap="round"><g transform="translate(432.12566067378157 450.8867241302022) rotate(0 43.24242700588718 0.7176964783803896)"><path d="M0 0 C21.25 0.35, 42.5 0.71, 86.48 1.44 M0 0 C27.05 0.45, 54.09 0.9, 86.48 1.44" stroke="#1e1e1e" stroke-width="1" fill="none"></path></g><g transform="translate(432.12566067378157 450.8867241302022) rotate(0 43.24242700588718 0.7176964783803896)"><path d="M58.13 11.23 C65.09 8.82, 72.06 6.42, 86.48 1.44 M58.13 11.23 C67 8.16, 75.86 5.1, 86.48 1.44" stroke="#1e1e1e" stroke-width="1" fill="none"></path></g><g transform="translate(432.12566067378157 450.8867241302022) rotate(0 43.24242700588718 0.7176964783803896)"><path d="M58.47 -9.29 C65.35 -6.66, 72.23 -4.02, 86.48 1.44 M58.47 -9.29 C67.23 -5.94, 75.99 -2.58, 86.48 1.44" stroke="#1e1e1e" stroke-width="1" fill="none"></path></g></g><mask></mask><g transform="translate(390.2465700073062 526.1881060727751) rotate(0 34.06529235839844 31.014879592812534)"><text x="0" y="0" font-family="Virgil, Segoe UI Emoji" font-size="49.62380734850006px" fill="#1e1e1e" text-anchor="start" style="white-space: pre;" direction="ltr" dominant-baseline="text-before-edge">🔁</text></g><g stroke-linecap="round" transform="translate(911.3255092169327 390.66356272738096) rotate(0 75 80)"><path d="M0 0 L150 0 L150 160 L0 160" stroke="none" stroke-width="0" fill="#96f2d7"></path><path d="M0 0 C44.59 0, 89.19 0, 150 0 M0 0 C30.43 0, 60.86 0, 150 0 M150 0 C150 38.03, 150 76.05, 150 160 M150 0 C150 45, 150 89.99, 150 160 M150 160 C101.53 160, 53.06 160, 0 160 M150 160 C112.69 160, 75.38 160, 0 160 M0 160 C0 123.49, 0 86.98, 0 0 M0 160 C0 101.16, 0 42.32, 0 0" stroke="#1e1e1e" stroke-width="1" fill="none"></path></g><g transform="translate(919.7055675055069 395.66356272738096) rotate(0 66.61994171142578 75)"><text x="66.61994171142578" y="0" font-family="Virgil, Segoe UI Emoji" font-size="20px" fill="#1e1e1e" text-anchor="middle" style="white-space: pre;" direction="ltr" dominant-baseline="text-before-edge">Transform </text><text x="66.61994171142578" y="25" font-family="Virgil, Segoe UI Emoji" font-size="20px" fill="#1e1e1e" text-anchor="middle" style="white-space: pre;" direction="ltr" dominant-baseline="text-before-edge">data with </text><text x="66.61994171142578" y="50" font-family="Virgil, Segoe UI Emoji" font-size="20px" fill="#1e1e1e" text-anchor="middle" style="white-space: pre;" direction="ltr" dominant-baseline="text-before-edge">aggregations </text><text x="66.61994171142578" y="75" font-family="Virgil, Segoe UI Emoji" font-size="20px" fill="#1e1e1e" text-anchor="middle" style="white-space: pre;" direction="ltr" dominant-baseline="text-before-edge">and User </text><text x="66.61994171142578" y="100" font-family="Virgil, Segoe UI Emoji" font-size="20px" fill="#1e1e1e" text-anchor="middle" style="white-space: pre;" direction="ltr" dominant-baseline="text-before-edge">Defined </text><text x="66.61994171142578" y="125" font-family="Virgil, Segoe UI Emoji" font-size="20px" fill="#1e1e1e" text-anchor="middle" style="white-space: pre;" direction="ltr" dominant-baseline="text-before-edge">Function</text></g><g stroke-linecap="round"><g transform="translate(852.8314545191013 470.1759216956188) rotate(0 25.53837632979028 -0.4118072684215974)"><path d="M0 0 C12.99 -0.21, 25.97 -0.42, 51.08 -0.82 M0 0 C13.12 -0.21, 26.23 -0.42, 51.08 -0.82" stroke="#1e1e1e" stroke-width="1" fill="none"></path></g><g transform="translate(852.8314545191013 470.1759216956188) rotate(0 25.53837632979028 -0.4118072684215974)"><path d="M27.22 8.3 C33.28 5.98, 39.35 3.66, 51.08 -0.82 M27.22 8.3 C33.35 5.96, 39.47 3.61, 51.08 -0.82" stroke="#1e1e1e" stroke-width="1" fill="none"></path></g><g transform="translate(852.8314545191013 470.1759216956188) rotate(0 25.53837632979028 -0.4118072684215974)"><path d="M26.94 -9.17 C33.07 -7.05, 39.21 -4.93, 51.08 -0.82 M26.94 -9.17 C33.14 -7.03, 39.33 -4.88, 51.08 -0.82" stroke="#1e1e1e" stroke-width="1" fill="none"></path></g></g><mask></mask><g stroke-linecap="round" transform="translate(1544.5340438777037 403.16356272738096) rotate(0 57 67.5)"><path d="M0 0 C38.28 0, 76.56 0, 114 0 M0 0 C39.83 0, 79.66 0, 114 0 M114 0 C114 36.67, 114 73.34, 114 135 M114 0 C114 51.17, 114 102.34, 114 135 M114 135 C71.29 135, 28.57 135, 0 135 M114 135 C78.1 135, 42.2 135, 0 135 M0 135 C0 97.84, 0 60.69, 0 0 M0 135 C0 101.94, 0 68.88, 0 0" stroke="#1e1e1e" stroke-width="1" fill="none"></path></g><g transform="translate(1554.3640762263365 433.16356272738096) rotate(0 47.16996765136719 37.5)"><text x="47.16996765136719" y="0" font-family="Virgil, Segoe UI Emoji" font-size="20px" fill="#1e1e1e" text-anchor="middle" style="white-space: pre;" direction="ltr" dominant-baseline="text-before-edge">ETL onto</text><text x="47.16996765136719" y="25" font-family="Virgil, Segoe UI Emoji" font-size="20px" fill="#1e1e1e" text-anchor="middle" style="white-space: pre;" direction="ltr" dominant-baseline="text-before-edge">summary </text><text x="47.16996765136719" y="50" font-family="Virgil, Segoe UI Emoji" font-size="20px" fill="#1e1e1e" text-anchor="middle" style="white-space: pre;" direction="ltr" dominant-baseline="text-before-edge">table</text></g><g stroke-linecap="round" transform="translate(1134.0957607301848 403.16356272738096) rotate(0 57 67.5)"><path d="M0 0 C25.81 0, 51.62 0, 114 0 M0 0 C37.35 0, 74.7 0, 114 0 M114 0 C114 43.54, 114 87.08, 114 135 M114 0 C114 27.21, 114 54.42, 114 135 M114 135 C75.45 135, 36.91 135, 0 135 M114 135 C86.36 135, 58.72 135, 0 135 M0 135 C0 95.73, 0 56.46, 0 0 M0 135 C0 102.43, 0 69.87, 0 0" stroke="#1e1e1e" stroke-width="1" fill="none"></path></g><g transform="translate(1140.0157970461028 433.16356272738096) rotate(0 51.07996368408203 37.5)"><text x="51.07996368408203" y="0" font-family="Virgil, Segoe UI Emoji" font-size="20px" fill="#1e1e1e" text-anchor="middle" style="white-space: pre;" direction="ltr" dominant-baseline="text-before-edge">Load </text><text x="51.07996368408203" y="25" font-family="Virgil, Segoe UI Emoji" font-size="20px" fill="#1e1e1e" text-anchor="middle" style="white-space: pre;" direction="ltr" dominant-baseline="text-before-edge">data onto</text><text x="51.07996368408203" y="50" font-family="Virgil, Segoe UI Emoji" font-size="20px" fill="#1e1e1e" text-anchor="middle" style="white-space: pre;" direction="ltr" dominant-baseline="text-before-edge">detailed</text></g><g stroke-linecap="round"><g transform="translate(1064.1732432468402 467.1695738140552) rotate(0 29.591296534969572 2.5945406131420725)"><path d="M0 0 C11.85 1.04, 23.7 2.08, 59.18 5.19 M0 0 C16.01 1.4, 32.02 2.81, 59.18 5.19" stroke="#1e1e1e" stroke-width="1" fill="none"></path></g><g transform="translate(1064.1732432468402 467.1695738140552) rotate(0 29.591296534969572 2.5945406131420725)"><path d="M30.49 12.87 C36.23 11.33, 41.98 9.8, 59.18 5.19 M30.49 12.87 C38.25 10.79, 46.01 8.72, 59.18 5.19" stroke="#1e1e1e" stroke-width="1" fill="none"></path></g><g transform="translate(1064.1732432468402 467.1695738140552) rotate(0 29.591296534969572 2.5945406131420725)"><path d="M32.26 -7.37 C37.65 -4.86, 43.04 -2.34, 59.18 5.19 M32.26 -7.37 C39.54 -3.97, 46.83 -0.58, 59.18 5.19" stroke="#1e1e1e" stroke-width="1" fill="none"></path></g></g><mask></mask><g stroke-linecap="round"><g transform="translate(1472.6693385787282 467.59032031772654) rotate(0 34.74276407588721 2.173794109470691)"><path d="M0 0 C17.11 1.07, 34.22 2.14, 69.49 4.35 M0 0 C15.13 0.95, 30.26 1.89, 69.49 4.35" stroke="#1e1e1e" stroke-width="1" fill="none"></path></g><g transform="translate(1472.6693385787282 467.59032031772654) rotate(0 34.74276407588721 2.173794109470691)"><path d="M40.71 12.83 C47.79 10.74, 54.88 8.65, 69.49 4.35 M40.71 12.83 C46.97 10.98, 53.24 9.14, 69.49 4.35" stroke="#1e1e1e" stroke-width="1" fill="none"></path></g><g transform="translate(1472.6693385787282 467.59032031772654) rotate(0 34.74276407588721 2.173794109470691)"><path d="M41.99 -7.65 C48.76 -4.7, 55.53 -1.74, 69.49 4.35 M41.99 -7.65 C47.98 -5.04, 53.96 -2.43, 69.49 4.35" stroke="#1e1e1e" stroke-width="1" fill="none"></path></g></g><mask></mask><g stroke-linecap="round" transform="translate(32.40603598991265 408.61984714939683) rotate(0 70.5 66)"><path d="M141 66 C141 68.46, 140.85 70.94, 140.56 73.39 C140.26 75.84, 139.82 78.28, 139.23 80.69 C138.65 83.09, 137.91 85.47, 137.04 87.8 C136.17 90.12, 135.16 92.42, 134.02 94.64 C132.88 96.86, 131.59 99.03, 130.19 101.11 C128.79 103.2, 127.26 105.22, 125.62 107.15 C123.98 109.08, 122.21 110.93, 120.35 112.67 C118.49 114.41, 116.51 116.07, 114.46 117.6 C112.4 119.14, 110.24 120.57, 108.01 121.88 C105.78 123.19, 103.46 124.4, 101.09 125.46 C98.72 126.53, 96.27 127.48, 93.78 128.3 C91.3 129.11, 88.75 129.8, 86.19 130.35 C83.62 130.89, 81.01 131.31, 78.39 131.59 C75.78 131.86, 73.13 132, 70.5 132 C67.87 132, 65.22 131.86, 62.61 131.59 C59.99 131.31, 57.38 130.89, 54.81 130.35 C52.25 129.8, 49.7 129.11, 47.22 128.3 C44.73 127.48, 42.28 126.53, 39.91 125.46 C37.54 124.4, 35.22 123.19, 32.99 121.88 C30.76 120.57, 28.6 119.14, 26.54 117.6 C24.49 116.07, 22.51 114.41, 20.65 112.67 C18.79 110.93, 17.02 109.08, 15.38 107.15 C13.74 105.22, 12.21 103.2, 10.81 101.11 C9.41 99.03, 8.12 96.86, 6.98 94.64 C5.84 92.42, 4.83 90.12, 3.96 87.8 C3.09 85.47, 2.35 83.09, 1.77 80.69 C1.18 78.28, 0.74 75.84, 0.44 73.39 C0.15 70.94, 0 68.46, 0 66 C0 63.54, 0.15 61.06, 0.44 58.61 C0.74 56.16, 1.18 53.72, 1.77 51.31 C2.35 48.91, 3.09 46.53, 3.96 44.2 C4.83 41.88, 5.84 39.58, 6.98 37.36 C8.12 35.14, 9.41 32.97, 10.81 30.89 C12.21 28.8, 13.74 26.78, 15.38 24.85 C17.02 22.92, 18.79 21.07, 20.65 19.33 C22.51 17.59, 24.49 15.93, 26.54 14.4 C28.6 12.86, 30.76 11.43, 32.99 10.12 C35.22 8.81, 37.54 7.6, 39.91 6.54 C42.28 5.47, 44.73 4.52, 47.22 3.7 C49.7 2.89, 52.25 2.2, 54.81 1.65 C57.38 1.11, 59.99 0.69, 62.61 0.41 C65.22 0.14, 67.87 0, 70.5 0 C73.13 0, 75.78 0.14, 78.39 0.41 C81.01 0.69, 83.62 1.11, 86.19 1.65 C88.75 2.2, 91.3 2.89, 93.78 3.7 C96.27 4.52, 98.72 5.47, 101.09 6.54 C103.46 7.6, 105.78 8.81, 108.01 10.12 C110.24 11.43, 112.4 12.86, 114.46 14.4 C116.51 15.93, 118.49 17.59, 120.35 19.33 C122.21 21.07, 123.98 22.92, 125.62 24.85 C127.26 26.78, 128.79 28.8, 130.19 30.89 C131.59 32.97, 132.88 35.14, 134.02 37.36 C135.16 39.58, 136.17 41.88, 137.04 44.2 C137.91 46.53, 138.65 48.91, 139.23 51.31 C139.82 53.72, 140.26 56.16, 140.56 58.61 C140.85 61.06, 140.93 64.77, 141 66 C141.07 67.23, 141.07 64.77, 141 66" stroke="none" stroke-width="0" fill="#e9ecef"></path><path d="M141 66 C141 68.46, 140.85 70.94, 140.56 73.39 C140.26 75.84, 139.82 78.28, 139.23 80.69 C138.65 83.09, 137.91 85.47, 137.04 87.8 C136.17 90.12, 135.16 92.42, 134.02 94.64 C132.88 96.86, 131.59 99.03, 130.19 101.11 C128.79 103.2, 127.26 105.22, 125.62 107.15 C123.98 109.08, 122.21 110.93, 120.35 112.67 C118.49 114.41, 116.51 116.07, 114.46 117.6 C112.4 119.14, 110.24 120.57, 108.01 121.88 C105.78 123.19, 103.46 124.4, 101.09 125.46 C98.72 126.53, 96.27 127.48, 93.78 128.3 C91.3 129.11, 88.75 129.8, 86.19 130.35 C83.62 130.89, 81.01 131.31, 78.39 131.59 C75.78 131.86, 73.13 132, 70.5 132 C67.87 132, 65.22 131.86, 62.61 131.59 C59.99 131.31, 57.38 130.89, 54.81 130.35 C52.25 129.8, 49.7 129.11, 47.22 128.3 C44.73 127.48, 42.28 126.53, 39.91 125.46 C37.54 124.4, 35.22 123.19, 32.99 121.88 C30.76 120.57, 28.6 119.14, 26.54 117.6 C24.49 116.07, 22.51 114.41, 20.65 112.67 C18.79 110.93, 17.02 109.08, 15.38 107.15 C13.74 105.22, 12.21 103.2, 10.81 101.11 C9.41 99.03, 8.12 96.86, 6.98 94.64 C5.84 92.42, 4.83 90.12, 3.96 87.8 C3.09 85.47, 2.35 83.09, 1.77 80.69 C1.18 78.28, 0.74 75.84, 0.44 73.39 C0.15 70.94, 0 68.46, 0 66 C0 63.54, 0.15 61.06, 0.44 58.61 C0.74 56.16, 1.18 53.72, 1.77 51.31 C2.35 48.91, 3.09 46.53, 3.96 44.2 C4.83 41.88, 5.84 39.58, 6.98 37.36 C8.12 35.14, 9.41 32.97, 10.81 30.89 C12.21 28.8, 13.74 26.78, 15.38 24.85 C17.02 22.92, 18.79 21.07, 20.65 19.33 C22.51 17.59, 24.49 15.93, 26.54 14.4 C28.6 12.86, 30.76 11.43, 32.99 10.12 C35.22 8.81, 37.54 7.6, 39.91 6.54 C42.28 5.47, 44.73 4.52, 47.22 3.7 C49.7 2.89, 52.25 2.2, 54.81 1.65 C57.38 1.11, 59.99 0.69, 62.61 0.41 C65.22 0.14, 67.87 0, 70.5 0 C73.13 0, 75.78 0.14, 78.39 0.41 C81.01 0.69, 83.62 1.11, 86.19 1.65 C88.75 2.2, 91.3 2.89, 93.78 3.7 C96.27 4.52, 98.72 5.47, 101.09 6.54 C103.46 7.6, 105.78 8.81, 108.01 10.12 C110.24 11.43, 112.4 12.86, 114.46 14.4 C116.51 15.93, 118.49 17.59, 120.35 19.33 C122.21 21.07, 123.98 22.92, 125.62 24.85 C127.26 26.78, 128.79 28.8, 130.19 30.89 C131.59 32.97, 132.88 35.14, 134.02 37.36 C135.16 39.58, 136.17 41.88, 137.04 44.2 C137.91 46.53, 138.65 48.91, 139.23 51.31 C139.82 53.72, 140.26 56.16, 140.56 58.61 C140.85 61.06, 140.93 64.77, 141 66 C141.07 67.23, 141.07 64.77, 141 66" stroke="#1e1e1e" stroke-width="1" fill="none"></path></g><g transform="translate(59.55903623657355 454.45079959108466) rotate(0 43.4959716796875 20)"><text x="43.4959716796875" y="0" font-family="Virgil, Segoe UI Emoji" font-size="16px" fill="#1e1e1e" text-anchor="middle" style="white-space: pre;" direction="ltr" dominant-baseline="text-before-edge">Otherwise, </text><text x="43.4959716796875" y="20" font-family="Virgil, Segoe UI Emoji" font-size="16px" fill="#1e1e1e" text-anchor="middle" style="white-space: pre;" direction="ltr" dominant-baseline="text-before-edge">truncate</text></g><g stroke-linecap="round" transform="translate(274.58052664481306 62.601837587619116) rotate(0 95 51)"><path d="M0 0 L190 0 L190 102 L0 102" stroke="none" stroke-width="0" fill="#0078d7"></path><path d="M0 0 C40.09 0, 80.18 0, 190 0 M0 0 C58.51 0, 117.02 0, 190 0 M190 0 C190 23.17, 190 46.35, 190 102 M190 0 C190 31.96, 190 63.92, 190 102 M190 102 C126.87 102, 63.74 102, 0 102 M190 102 C125.53 102, 61.06 102, 0 102 M0 102 C0 79.1, 0 56.19, 0 0 M0 102 C0 69.57, 0 37.15, 0 0" stroke="#1e1e1e" stroke-width="1" fill="none"></path></g><g transform="translate(315.78855734549666 103.60183758761912) rotate(0 53.791969299316406 10)"><text x="53.791969299316406" y="0" font-family="Virgil, Segoe UI Emoji" font-size="16px" fill="#ffffff" text-anchor="middle" style="white-space: pre;" direction="ltr" dominant-baseline="text-before-edge">Job Scheduler</text></g><g stroke-linecap="round" transform="translate(476.9861636890714 62.601837587619116) rotate(0 95 51)"><path d="M0 0 L190 0 L190 102 L0 102" stroke="none" stroke-width="0" fill="#ffec99"></path><path d="M0 0 C66.81 0, 133.63 0, 190 0 M0 0 C49.8 0, 99.6 0, 190 0 M190 0 C190 29.89, 190 59.77, 190 102 M190 0 C190 28.1, 190 56.2, 190 102 M190 102 C139.2 102, 88.41 102, 0 102 M190 102 C148.42 102, 106.85 102, 0 102 M0 102 C0 69.38, 0 36.75, 0 0 M0 102 C0 73.69, 0 45.39, 0 0" stroke="#1e1e1e" stroke-width="1" fill="none"></path></g><g transform="translate(533.522189690048 103.60183758761912) rotate(0 38.46397399902344 10)"><text x="38.46397399902344" y="0" font-family="Virgil, Segoe UI Emoji" font-size="16px" fill="#1e1e1e" text-anchor="middle" style="white-space: pre;" direction="ltr" dominant-baseline="text-before-edge">Procedure</text></g><g stroke-linecap="round" transform="translate(680.4362596177455 62.601837587619116) rotate(0 95 51)"><path d="M0 0 L190 0 L190 102 L0 102" stroke="none" stroke-width="0" fill="#96f2d7"></path><path d="M0 0 C56.78 0, 113.56 0, 190 0 M0 0 C43.77 0, 87.53 0, 190 0 M190 0 C190 28.89, 190 57.77, 190 102 M190 0 C190 34.08, 190 68.15, 190 102 M190 102 C142.1 102, 94.21 102, 0 102 M190 102 C136.56 102, 83.12 102, 0 102 M0 102 C0 61.97, 0 21.94, 0 0 M0 102 C0 79.38, 0 56.76, 0 0" stroke="#1e1e1e" stroke-width="1" fill="none"></path></g><g transform="translate(692.8763078355189 103.60183758761912) rotate(0 82.55995178222656 10)"><text x="82.55995178222656" y="0" font-family="Virgil, Segoe UI Emoji" font-size="16px" fill="#1e1e1e" text-anchor="middle" style="white-space: pre;" direction="ltr" dominant-baseline="text-before-edge">user defined function</text></g><g stroke-linecap="round" transform="translate(883.1260418185763 62.601837587619116) rotate(0 95 51)"><path d="M0 0 L190 0 L190 102 L0 102" stroke="none" stroke-width="0" fill="#d0bfff"></path><path d="M0 0 C67.91 0, 135.83 0, 190 0 M0 0 C61.27 0, 122.54 0, 190 0 M190 0 C190 40.2, 190 80.4, 190 102 M190 0 C190 25.17, 190 50.33, 190 102 M190 102 C122.54 102, 55.07 102, 0 102 M190 102 C151.42 102, 112.84 102, 0 102 M0 102 C0 71.93, 0 41.85, 0 0 M0 102 C0 74.74, 0 47.47, 0 0" stroke="#1e1e1e" stroke-width="1" fill="none"></path></g><g transform="translate(950.6700634250216 103.60183758761912) rotate(0 27.455978393554688 10)"><text x="27.455978393554688" y="0" font-family="Virgil, Segoe UI Emoji" font-size="16px" fill="#1e1e1e" text-anchor="middle" style="white-space: pre;" direction="ltr" dominant-baseline="text-before-edge">Trigger</text></g><g transform="translate(278.58555286752005 10) rotate(0 59.94313049316406 17.438159272017913)"><text x="0" y="0" font-family="Virgil, Segoe UI Emoji" font-size="27.901054835228702px" fill="#1e1e1e" text-anchor="start" style="white-space: pre;" direction="ltr" dominant-baseline="text-before-edge">Map Key:</text></g></svg>